HIERARCHY
ROOT Hips
{
	OFFSET 0.00000 0.00000 0.00000
	CHANNELS 6 Xposition Yposition Zposition Zrotation Yrotation Xrotation 
	JOINT LHipJoint
	{
		OFFSET 0 0 0
		CHANNELS 3 Zrotation Yrotation Xrotation
		JOINT LeftUpLeg
		{
			OFFSET 1.23340 -1.80723 0.69510
			CHANNELS 3 Zrotation Yrotation Xrotation
			JOINT LeftLeg
			{
				OFFSET 2.50056 -6.87023 0.00000
				CHANNELS 3 Zrotation Yrotation Xrotation
				JOINT LeftFoot
				{
					OFFSET 2.85931 -7.85591 0.00000
					CHANNELS 3 Zrotation Yrotation Xrotation
					JOINT LeftToeBase
					{
						OFFSET 0.21001 -0.57700 2.07823
						CHANNELS 3 Zrotation Yrotation Xrotation
						End Site
						{
							OFFSET 0.00000 -0.00000 1.08338
						}
					}
				}
			}
		}
	}
	JOINT RHipJoint
	{
		OFFSET 0 0 0
		CHANNELS 3 Zrotation Yrotation Xrotation
		JOINT RightUpLeg
		{
			OFFSET -1.40842 -1.80723 0.69510
			CHANNELS 3 Zrotation Yrotation Xrotation
			JOINT RightLeg
			{
				OFFSET -2.54876 -7.00266 0.00000
				CHANNELS 3 Zrotation Yrotation Xrotation
				JOINT RightFoot
				{
					OFFSET -2.74835 -7.55104 0.00000
					CHANNELS 3 Zrotation Yrotation Xrotation
					JOINT RightToeBase
					{
						OFFSET -0.22633 -0.62184 2.00890
						CHANNELS 3 Zrotation Yrotation Xrotation
						End Site
						{
							OFFSET -0.00000 -0.00000 1.05493
						}
					}
				}
			}
		}
	}
	JOINT LowerBack
	{
		OFFSET 0 0 0
		CHANNELS 3 Zrotation Yrotation Xrotation
		JOINT Spine
		{
			OFFSET -0.02340 2.02740 -0.12728
			CHANNELS 3 Zrotation Yrotation Xrotation
			JOINT Spine1
			{
				OFFSET -0.00862 2.03614 -0.01188
				CHANNELS 3 Zrotation Yrotation Xrotation
				JOINT Neck
				{
					OFFSET 0 0 0
					CHANNELS 3 Zrotation Yrotation Xrotation
					JOINT Neck1
					{
						OFFSET 0.03380 1.76650 0.27670
						CHANNELS 3 Zrotation Yrotation Xrotation
						JOINT Head
						{
							OFFSET -0.01114 1.80516 -0.21451
							CHANNELS 3 Zrotation Yrotation Xrotation
							End Site
							{
								OFFSET -0.00766 1.81942 -0.10287
							}
						}
					}
				}
				JOINT LeftShoulder
				{
					OFFSET 0 0 0
					CHANNELS 3 Zrotation Yrotation Xrotation
					JOINT LeftArm
					{
						OFFSET 3.22358 1.39475 0.18630
						CHANNELS 3 Zrotation Yrotation Xrotation
						JOINT LeftForeArm
						{
							OFFSET 5.45077 -0.00000 0.00000
							CHANNELS 3 Zrotation Yrotation Xrotation
							JOINT LeftHand
							{
								OFFSET 3.05488 -0.00000 0.00000
								CHANNELS 3 Zrotation Yrotation Xrotation
								JOINT LeftFingerBase
								{
									OFFSET 0 0 0
									CHANNELS 3 Zrotation Yrotation Xrotation
									JOINT LeftHandIndex1
									{
										OFFSET 0.63882 -0.00000 0.00000
										CHANNELS 3 Zrotation Yrotation Xrotation
										End Site
										{
											OFFSET 0.51503 -0.00000 0.00000
										}
									}
								}
								JOINT LThumb
								{
									OFFSET 0 0 0
									CHANNELS 3 Zrotation Yrotation Xrotation
									End Site
									{
										OFFSET 0.52290 -0.00000 0.52290
									}
								}
							}
						}
					}
				}
				JOINT RightShoulder
				{
					OFFSET 0 0 0
					CHANNELS 3 Zrotation Yrotation Xrotation
					JOINT RightArm
					{
						OFFSET -3.57143 1.14055 0.30691
						CHANNELS 3 Zrotation Yrotation Xrotation
						JOINT RightForeArm
						{
							OFFSET -4.88702 -0.00000 -0.00000
							CHANNELS 3 Zrotation Yrotation Xrotation
							JOINT RightHand
							{
								OFFSET -3.22603 -0.00000 0.00000
								CHANNELS 3 Zrotation Yrotation Xrotation
								JOINT RightFingerBase
								{
									OFFSET 0 0 0
									CHANNELS 3 Zrotation Yrotation Xrotation
									JOINT RightHandIndex1
									{
										OFFSET -0.71629 -0.00000 0.00000
										CHANNELS 3 Zrotation Yrotation Xrotation
										End Site
										{
											OFFSET -0.57749 -0.00000 0.00000
										}
									}
								}
								JOINT RThumb
								{
									OFFSET 0 0 0
									CHANNELS 3 Zrotation Yrotation Xrotation
									End Site
									{
										OFFSET -0.58631 -0.00000 0.58631
									}
								}
							}
						}
					}
				}
			}
		}
	}
}
MOTION
Frames: 13
Frame Time: .0083333
1.7728 18.5425 0.4908 7.2289 83.2892 20.5582 0.0000 0.0000 0.0000 -19.5919 4.7201 -17.3687 0.7431 5.5066 15.3594 0.6240 -2.9903 -14.2029 2.0206 -8.9088 -25.5105 0.0000 0.0000 0.0000 15.6117 -1.3453 -10.4048 0.0000 -0.0000 0.0000 0.4257 11.5878 2.5314 -0.1530 2.5205 -6.9464 -3.1533 -2.6796 -11.1701 -2.5346 -2.9667 -4.1137 -1.2322 -1.3976 1.9871 -10.9243 -20.9235 -5.9460 14.8603 -28.0934 1.0286 3.6043 -13.5368 4.8180 -0.0000 -0.0000 0.0000 -43.4425 35.5075 69.2397 115.0705 -57.4865 -81.5285 -0.0000 -0.0000 179.6280 19.3413 -4.1385 -1.4511 -7.1250 0.0000 -0.0000 -5.5034 25.5910 2.5977 -0.0000 -0.0000 0.0000 12.4429 22.2984 -67.7971 -44.3308 50.4364 -21.7216 0.0000 0.0000 164.5740 -10.6486 -11.4669 2.1407 7.1250 -0.0000 -0.0000 14.6052 -41.1916 1.4055
1.7728 18.5423 0.4952 7.5462 83.2010 20.8868 0.0000 0.0000 0.0000 -19.6391 4.6918 -17.3621 0.7439 5.5095 15.3678 0.6311 -2.9604 -14.2900 2.0145 -8.8962 -25.4711 0.0000 0.0000 0.0000 15.5559 -1.2705 -10.4029 0.0000 0.0000 -0.0000 0.4236 11.5405 2.6691 -0.1711 2.6650 -7.3475 -3.2620 -2.6740 -11.1893 -2.5630 -2.9445 -4.1064 -1.1993 -1.3858 2.0089 -10.9433 -20.9089 -6.0244 14.8719 -28.0835 1.1514 3.5955 -13.5232 4.8715 -0.0000 0.0000 0.0000 -43.4293 35.4793 69.2883 115.1207 -57.4758 -81.5708 -0.0000 -0.0000 179.7140 19.1368 -4.1946 -1.4539 -7.1250 0.0000 -0.0000 -5.6557 25.5370 2.6774 -0.0000 0.0000 0.0000 12.4277 22.3076 -67.8532 -44.3084 50.4251 -21.7043 0.0000 0.0000 164.5480 -10.7666 -11.4310 2.1583 7.1250 -0.0000 -0.0000 14.4943 -41.1671 1.4033
1.7736 18.5424 0.4988 7.4777 83.1096 20.8276 0.0000 0.0000 0.0000 -19.6385 4.6209 -17.3245 0.7431 5.5067 15.3596 0.6315 -2.8009 -14.3184 1.9835 -8.8317 -25.2702 0.0000 0.0000 0.0000 15.5380 -1.1711 -10.4115 0.0000 0.0000 -0.0000 0.4258 11.5567 2.7780 -0.1642 2.6103 -7.1957 -3.3479 -2.6581 -11.1908 -2.5572 -2.9142 -4.1235 -1.1410 -1.3696 1.9963 -10.9294 -20.8841 -6.0916 14.7785 -28.0479 1.2448 3.5649 -13.5031 4.8901 -0.0000 -0.0000 0.0000 -43.4636 35.4825 69.3234 115.0948 -57.4813 -81.5489 -0.0000 -0.0000 179.7190 19.1121 -4.1014 -1.4197 -7.1250 0.0000 -0.0000 -5.6772 25.6358 2.6745 -0.0000 -0.0000 0.0000 12.3879 22.2622 -67.8117 -44.3220 50.4320 -21.7149 0.0000 0.0000 164.4370 -10.9228 -11.4182 2.1879 7.1250 -0.0000 -0.0000 14.3564 -41.1687 1.3887
1.7748 18.5423 0.5030 7.1956 83.0231 20.5372 0.0000 0.0000 0.0000 -19.6096 4.5989 -17.2785 0.7424 5.5041 15.3521 0.6339 -2.6507 -14.3703 2.0043 -8.8751 -25.4054 0.0000 0.0000 0.0000 15.5497 -1.0806 -10.3782 0.0000 0.0000 -0.0000 0.4289 11.6053 2.7310 -0.1643 2.6114 -7.1986 -3.3874 -2.6324 -11.1913 -2.5710 -2.8752 -4.1161 -1.1285 -1.3501 2.0051 -10.9102 -20.8696 -6.1406 14.7651 -28.0277 1.2727 3.5566 -13.4902 4.8993 0.0000 0.0000 0.0000 -43.4458 35.4245 69.3798 115.0965 -57.4810 -81.5504 -0.0000 -0.0000 179.8000 19.0422 -4.1381 -1.4267 -7.1250 0.0000 -0.0000 -5.7288 25.5990 2.7040 0.0000 0.0000 0.0000 12.3888 22.2000 -67.7572 -44.4038 50.4730 -21.7779 0.0000 0.0000 164.3680 -11.0569 -11.4265 2.2170 7.1250 -0.0000 -0.0000 14.2428 -41.1889 1.3699
1.7726 18.5415 0.5095 6.9894 82.9431 20.3215 0.0000 0.0000 0.0000 -19.5876 4.6646 -17.3010 0.7439 5.5096 15.3679 0.6358 -2.6205 -14.3974 2.0186 -8.9047 -25.4976 0.0000 0.0000 0.0000 15.5723 -0.9963 -10.3425 0.0000 0.0000 -0.0000 0.4293 11.6228 2.6330 -0.1847 2.7683 -7.6344 -3.4580 -2.6195 -11.1734 -2.5811 -2.8510 -4.1094 -1.0957 -1.3377 2.0051 -10.9731 -20.8497 -6.0852 14.8394 -28.0001 1.2078 3.5941 -13.4791 4.8877 0.0000 -0.0000 0.0000 -43.4457 35.4374 69.3888 115.1466 -57.4703 -81.5927 -0.0000 -0.0000 179.8500 19.0082 -4.1536 -1.4293 -7.1250 0.0000 -0.0000 -5.7539 25.5835 2.7180 0.0000 -0.0000 0.0000 12.3248 22.1873 -67.7554 -44.4274 50.4849 -21.7961 0.0000 0.0000 164.3680 -10.9886 -11.3518 2.1888 7.1250 -0.0000 -0.0000 14.2829 -41.1093 1.4027
1.7736 18.5419 0.5138 6.9614 82.9085 20.2498 0.0000 0.0000 0.0000 -19.5717 4.6256 -17.2169 0.7454 5.5148 15.3830 0.6407 -2.5009 -14.4744 2.0751 -9.0207 -25.8602 0.0000 0.0000 0.0000 15.5794 -0.9697 -10.2943 0.0000 0.0000 -0.0000 0.4257 11.5657 2.6961 -0.1799 2.7319 -7.5332 -3.5211 -2.6064 -11.1521 -2.5984 -2.8272 -4.0815 -1.0752 -1.3262 2.0244 -11.0491 -20.8598 -6.0614 14.8899 -28.0103 1.1637 3.6165 -13.4848 4.8895 0.0000 -0.0000 0.0000 -43.4434 35.3860 69.4154 115.2175 -57.4552 -81.6524 -0.0000 -0.0000 179.9280 19.1160 -4.1719 -1.4444 -7.1250 0.0000 -0.0000 -5.6721 25.5615 2.6820 0.0000 -0.0000 0.0000 12.2183 22.1678 -67.8763 -44.4747 50.5085 -21.8326 0.0000 0.0000 164.4590 -11.0661 -11.3873 2.2114 7.1250 -0.0000 -0.0000 14.2251 -41.1512 1.3817
1.7737 18.5421 0.5191 6.3078 82.9068 19.5465 0.0000 0.0000 0.0000 -19.4514 4.6018 -17.1306 0.7485 5.5261 15.4154 0.6460 -2.4541 -14.5445 2.0938 -9.0588 -25.9794 0.0000 0.0000 0.0000 15.6837 -0.9474 -10.2355 0.0000 -0.0000 0.0000 0.4259 11.5625 2.7424 -0.1582 2.5625 -7.0630 -3.5238 -2.6098 -11.1010 -2.5880 -2.8354 -4.0331 -1.0630 -1.3319 2.0477 -11.0591 -20.8668 -6.1856 14.8542 -28.0104 1.2047 3.5935 -13.4782 4.9168 0.0000 0.0000 0.0000 -43.4642 35.3338 69.3714 115.2469 -57.4489 -81.6772 -0.0000 -0.0000 179.9490 19.2213 -4.2165 -1.4685 -7.1250 0.0000 -0.0000 -5.5915 25.5118 2.6500 0.0000 0.0000 0.0000 12.0818 22.2020 -68.0391 -44.5142 50.5282 -21.8631 0.0000 0.0000 164.6090 -11.1251 -11.4619 2.2378 7.1250 -0.0000 -0.0000 14.1930 -41.2299 1.3502
1.7705 18.5433 0.5257 6.5018 82.8519 19.7016 0.0000 0.0000 0.0000 -19.4660 4.6184 -17.0988 0.7500 5.5317 15.4314 0.6476 -2.4012 -14.5724 2.1217 -9.1152 -26.1563 0.0000 0.0000 0.0000 15.6645 -0.9057 -10.1960 0.0000 -0.0000 0.0000 0.4234 11.5307 2.7187 -0.1633 2.6034 -7.1766 -3.6542 -2.6167 -11.0281 -2.6318 -2.8326 -3.9874 -1.0334 -1.3308 2.0592 -10.9908 -20.8675 -6.2958 14.8757 -28.0026 1.1599 3.5852 -13.4685 4.9134 0.0000 0.0000 0.0000 -43.3928 35.2428 69.3938 115.2538 -57.4475 -81.6830 -0.0000 -0.0000 179.8670 19.1672 -4.2566 -1.4779 -7.1250 0.0000 -0.0000 -5.6310 25.4710 2.6743 0.0000 0.0000 0.0000 12.0099 22.2095 -68.0818 -44.6611 50.6014 -21.9766 0.0000 0.0000 164.7960 -11.0563 -11.4854 2.2281 7.1250 -0.0000 -0.0000 14.2583 -41.2469 1.3506
1.7680 18.5445 0.5337 6.3056 82.7442 19.4973 0.0000 0.0000 0.0000 -19.4447 4.6780 -17.0979 0.7503 5.5327 15.4344 0.6497 -2.3310 -14.6102 2.1150 -9.1016 -26.1138 0.0000 0.0000 0.0000 15.6832 -0.7874 -10.1726 0.0000 -0.0000 0.0000 0.4224 11.5164 2.7327 -0.1668 2.6313 -7.2538 -3.7696 -2.5947 -11.0106 -2.6583 -2.7906 -3.9600 -0.9911 -1.3099 2.0818 -10.9348 -20.8776 -6.2967 14.8679 -28.0010 1.0222 3.5860 -13.4723 4.8618 -0.0000 -0.0000 0.0000 -43.3297 35.1269 69.4404 115.2313 -57.4523 -81.6641 -0.0000 -0.0000 179.7650 19.1484 -4.2422 -1.4714 -7.1250 0.0000 -0.0000 -5.6456 25.4866 2.6792 -0.0000 -0.0000 0.0000 11.9317 22.1436 -68.0202 -44.8656 50.7025 -22.1347 0.0000 0.0000 164.9070 -10.9165 -11.4239 2.1877 7.1250 -0.0000 -0.0000 14.3633 -41.1737 1.3876
1.7671 18.5425 0.5416 6.2175 82.6674 19.4262 0.0000 0.0000 0.0000 -19.4196 4.6658 -17.1368 0.7496 5.5301 15.4270 0.6495 -2.2679 -14.6191 2.0861 -9.0431 -25.9304 0.0000 0.0000 0.0000 15.6918 -0.6961 -10.1844 0.0000 -0.0000 0.0000 0.4213 11.4953 2.7762 -0.1591 2.5700 -7.0838 -3.8987 -2.6005 -11.0375 -2.6729 -2.7813 -3.9708 -0.9340 -1.3039 2.0902 -10.9212 -20.8768 -6.2396 14.7679 -27.9882 0.9599 3.5715 -13.4753 4.8144 -0.0000 0.0000 0.0000 -43.2904 35.0513 69.5381 115.2503 -57.4482 -81.6801 -0.0000 -0.0000 179.7000 19.1493 -4.2130 -1.4613 -7.1250 0.0000 -0.0000 -5.6458 25.5173 2.6753 -0.0000 0.0000 0.0000 11.7972 22.1628 -68.0536 -44.9697 50.7536 -22.2153 0.0000 0.0000 165.1450 -11.0373 -11.4805 2.2233 7.1250 -0.0000 -0.0000 14.2734 -41.2404 1.3545
1.7641 18.5406 0.5481 6.2804 82.6149 19.5046 0.0000 0.0000 0.0000 -19.4026 4.5627 -17.1643 0.7514 5.5365 15.4452 0.6517 -2.1183 -14.6737 2.0888 -9.0486 -25.9473 0.0000 0.0000 0.0000 15.6899 -0.6392 -10.1897 0.0000 -0.0000 0.0000 0.4222 11.5127 2.7381 -0.1692 2.6503 -7.3066 -4.0197 -2.6194 -11.0453 -2.7134 -2.7901 -3.9796 -0.9099 -1.3069 2.0889 -10.9593 -20.8706 -6.2524 14.7606 -27.9855 1.0285 3.5684 -13.4715 4.8412 -0.0000 -0.0000 0.0000 -43.2517 35.0604 69.5764 115.3090 -57.4356 -81.7296 -0.0000 -0.0000 179.6560 19.2331 -4.0891 -1.4251 -7.1250 0.0000 -0.0000 -5.5864 25.6458 2.6301 -0.0000 -0.0000 0.0000 11.6512 22.2224 -68.1036 -45.0740 50.8047 -22.2961 0.0000 0.0000 165.3140 -11.1108 -11.4834 2.2390 7.1250 -0.0000 -0.0000 14.2109 -41.2499 1.3449
1.7636 18.5429 0.5548 6.5390 82.5841 19.7569 0.0000 0.0000 0.0000 -19.4292 4.5338 -17.0854 0.7506 5.5336 15.4370 0.6550 -2.0340 -14.7302 2.1161 -9.1038 -26.1207 0.0000 0.0000 0.0000 15.6692 -0.6177 -10.1798 0.0000 -0.0000 0.0000 0.4221 11.5115 2.7362 -0.1657 2.6228 -7.2304 -4.1587 -2.6655 -11.0788 -2.7687 -2.8299 -3.9738 -0.8968 -1.3255 2.1173 -11.0731 -20.8370 -6.1886 14.9275 -27.9566 1.0407 3.6302 -13.4540 4.8737 -0.0000 0.0000 0.0000 -43.2009 35.1695 69.5723 115.4211 -57.4115 -81.8240 -0.0000 -0.0000 179.6450 19.2471 -3.9844 -1.3898 -7.1250 0.0000 -0.0000 -5.5791 25.7557 2.6122 -0.0000 0.0000 0.0000 11.5088 22.2795 -68.0575 -45.1468 50.8402 -22.3525 0.0000 0.0000 165.4010 -11.1479 -11.4457 2.2394 7.1250 -0.0000 -0.0000 14.1692 -41.2161 1.3528
1.7639 18.5426 0.5621 5.5310 82.5952 18.7189 0.0000 0.0000 0.0000 -19.2575 4.5191 -17.0229 0.7520 5.5387 15.4515 0.6631 -1.9469 -14.8412 2.1092 -9.0899 -26.0769 0.0000 0.0000 0.0000 15.8404 -0.5876 -10.1267 0.0000 -0.0000 0.0000 0.4203 11.4803 2.7852 -0.1586 2.5660 -7.0727 -4.1405 -2.6862 -11.0624 -2.7699 -2.8604 -3.9877 -0.9109 -1.3402 2.0935 -11.1623 -20.7945 -6.0951 14.9997 -27.9104 1.0508 3.6724 -13.4336 4.8806 -0.0000 0.0000 0.0000 -43.1073 35.2348 69.6623 115.4797 -57.3989 -81.8734 -0.0000 -0.0000 179.5790 19.1711 -3.9259 -1.3636 -7.1250 0.0000 -0.0000 -5.6384 25.8191 2.6318 -0.0000 0.0000 0.0000 11.4341 22.3173 -67.9312 -45.2689 50.8996 -22.4473 0.0000 0.0000 165.4720 -11.1204 -11.4125 2.2273 7.1250 -0.0000 -0.0000 14.1846 -41.1809 1.3669
